HIERARCHY
ROOT ROOT
{
	OFFSET 0.000000 56.020000 -5.659234
	CHANNELS 6 Xposition Yposition Zposition Xrotation Yrotation Zrotation 
	JOINT C_spine0001_bind_JNT
	{
		OFFSET 0.000000 1.618999 0.000000
		CHANNELS 3 Xrotation Yrotation Zrotation
		JOINT C_spine0002_bind_JNT
		{
			OFFSET 0.000000 4.942001 0.000001
			CHANNELS 3 Xrotation Yrotation Zrotation
			JOINT C_spine0003_bind_JNT
			{
				OFFSET 0.000000 4.942001 -0.000000
				CHANNELS 3 Xrotation Yrotation Zrotation
				JOINT C_neck0001_bind_JNT
				{
					OFFSET 0.000000 17.026009 -0.000000
					CHANNELS 3 Xrotation Yrotation Zrotation
					JOINT C_neck0002_bind_JNT
					{
						OFFSET 0.000000 3.249985 0.000000
						CHANNELS 3 Xrotation Yrotation Zrotation
						JOINT C_head_bind_JNT
						{
							OFFSET 0.000000 5.278008 0.000000
							CHANNELS 3 Xrotation Yrotation Zrotation
							End Site
							{
								OFFSET 0.000000 0.000000 0.000000
							}
						}
					}
				}
				JOINT L_clavicle_bind_JNT
				{
					OFFSET 4.590000 12.067001 0.834000
					CHANNELS 3 Xrotation Yrotation Zrotation
					JOINT L_armUpper0001_bind_JNT
					{
						OFFSET 7.812635 0.512001 -3.452945
						CHANNELS 3 Xrotation Yrotation Zrotation
						JOINT L_armLower0001_bind_JNT
						{
							OFFSET 15.265892 -6.552116 -0.058157
							CHANNELS 3 Xrotation Yrotation Zrotation
							JOINT L_hand0001_bind_JNT
							{
								OFFSET 14.747667 -6.369995 5.049225
								CHANNELS 3 Xrotation Yrotation Zrotation
								End Site
								{
									OFFSET 0.000000 0.000000 0.000000
								}
							}
						}
					}
				}
				JOINT R_clavicle_bind_JNT
				{
					OFFSET -4.590000 12.067001 0.834000
					CHANNELS 3 Xrotation Yrotation Zrotation
					JOINT R_armUpper0001_bind_JNT
					{
						OFFSET -7.812635 0.512001 -3.452945
						CHANNELS 3 Xrotation Yrotation Zrotation
						JOINT R_armLower0001_bind_JNT
						{
							OFFSET -15.265890 -6.552124 -0.058160
							CHANNELS 3 Xrotation Yrotation Zrotation
							JOINT R_hand0001_bind_JNT
							{
								OFFSET -14.746784 -6.369629 5.048937
								CHANNELS 3 Xrotation Yrotation Zrotation
								End Site
								{
									OFFSET 0.000000 0.000000 0.000000
								}
							}
						}
					}
				}
			}
		}
	}
	JOINT C_pelvis0001_bind_JNT
	{
		OFFSET -0.000000 0.000000 0.000000
		CHANNELS 3 Xrotation Yrotation Zrotation
		JOINT L_legUpper0001_bind_JNT
		{
			OFFSET 6.599999 -6.027000 0.539000
			CHANNELS 3 Xrotation Yrotation Zrotation
			JOINT L_legLower0001_bind_JNT
			{
				OFFSET -0.140713 -19.187443 0.040261
				CHANNELS 3 Xrotation Yrotation Zrotation
				JOINT L_foot0001_bind_JNT
				{
					OFFSET -0.132215 -18.028637 -1.138370
					CHANNELS 3 Xrotation Yrotation Zrotation
					JOINT L_foot0002_bind_JNT
					{
						OFFSET 0.007014 -4.693133 9.886524
						CHANNELS 3 Xrotation Yrotation Zrotation
						End Site
						{
							OFFSET 0.000000 0.000000 0.000000
						}
					}
				}
			}
		}
		JOINT R_legUpper0001_bind_JNT
		{
			OFFSET -6.599999 -6.027000 0.539000
			CHANNELS 3 Xrotation Yrotation Zrotation
			JOINT R_legLower0001_bind_JNT
			{
				OFFSET 0.140710 -19.187164 0.040550
				CHANNELS 3 Xrotation Yrotation Zrotation
				JOINT R_foot0001_bind_JNT
				{
					OFFSET 0.132215 -18.028633 -1.138362
					CHANNELS 3 Xrotation Yrotation Zrotation
					JOINT R_foot0002_bind_JNT
					{
						OFFSET -0.007014 -4.693128 9.886505
						CHANNELS 3 Xrotation Yrotation Zrotation
						End Site
						{
							OFFSET 0.000000 0.000000 0.000000
						}
					}
				}
			}
		}
	}
}
MOTION
Frames: 13
Frame Time: 0.033333
0.000000 49.689777 0.000000 0.062952 -1.795467 0.001361 -4.820931 0.659544 -3.416409 7.552721 0.963162 -2.898522 2.488658 0.113902 -0.085032 2.980168 0.153785 1.710787 -1.070466 -5.406683 -1.298379 0.640142 -1.828960 -12.598054 -3.499234 13.105450 -3.453296 6.666367 8.947024 -61.041336 9.216721 4.860031 -2.045370 -17.954653 -23.107983 -19.262470 -3.672516 -20.896395 1.892167 11.745340 -11.641792 61.134041 17.692148 1.409895 2.851712 -2.998167 29.636887 35.081081 -2.793553 0.532267 -3.385864 7.864977 1.124745 0.846757 8.674873 2.278764 0.113444 -8.920336 -1.422395 0.312564 -7.370778 0.371093 -0.850940 7.804944 -0.389659 -5.536207 -10.669422 -11.388227 3.446591 3.629279 1.890014 10.155245 -13.729149 -0.362463 -0.603603
0.592650 49.903515 0.045996 -0.001780 -2.184921 -0.006725 -5.354504 1.363241 -3.920859 8.276278 0.971947 -2.341491 3.266957 0.938809 -0.788083 1.989729 -0.278055 2.054718 -0.535168 -6.655180 -1.617532 2.108134 -1.884277 -13.101136 -3.472945 12.428096 -3.739939 5.349327 8.273178 -59.319355 8.247650 4.806319 -3.130439 -19.688824 -25.089443 -19.538864 -4.661639 -22.749331 1.722110 10.271093 -11.535603 61.018517 19.956045 0.495881 2.639000 -1.637898 30.487890 34.332157 -3.889312 1.373289 -3.894172 8.466122 0.396328 -0.060455 8.414658 3.763613 -0.745295 -9.316143 -2.867784 1.016951 -5.273013 -0.458616 0.112810 8.360865 -0.720686 -5.894875 -9.269642 -11.808543 4.357401 2.722923 2.963291 9.035678 -13.164696 0.792441 -0.252103
0.988592 49.893063 0.305800 0.013525 -2.324464 0.002743 -5.561587 1.869072 -3.952710 8.310235 0.958792 -2.516327 3.283657 0.486777 -0.917028 1.751575 -0.130265 1.869631 -0.464710 -6.484334 -1.534496 2.670459 -2.085853 -12.508467 -3.666169 12.933963 -3.273963 6.011203 8.389169 -59.605534 8.239967 4.644434 -3.103833 -19.620262 -25.737000 -19.088055 -4.443219 -22.702978 1.896495 10.163506 -11.730641 60.996387 20.531994 0.096422 2.075650 -1.653644 30.068823 34.486607 -3.774386 2.053830 -3.898526 8.811512 -0.004887 -0.745640 8.183837 3.594424 -0.514595 -9.628160 -3.786824 1.070163 -6.476865 -0.649875 0.280960 7.677187 -1.155447 -6.383297 -8.694845 -10.403708 3.879397 3.308645 3.021532 9.794732 -12.741619 1.296105 -0.577495
1.359376 49.870941 0.589044 0.015940 -1.943414 -0.022351 -5.860996 2.197436 -4.119710 8.605505 0.535009 -2.721855 3.121164 0.531691 -0.931336 1.758679 -0.174949 1.690261 -0.523226 -6.278887 -1.668350 2.851897 -2.122351 -12.458714 -3.397873 12.782275 -3.482787 5.682069 8.468281 -59.488663 8.116031 4.971404 -2.521520 -19.395376 -26.431028 -19.146212 -4.483135 -22.747856 1.878360 10.294607 -12.012837 60.625362 21.186319 -0.128642 1.697749 -1.962387 29.602507 34.621845 -3.950725 2.247033 -3.952906 9.677718 -0.273003 -0.868923 7.846967 3.107159 -0.589377 -9.850919 -3.905751 1.351846 -6.896060 -0.665787 0.378470 7.253304 -0.999928 -6.691858 -8.735654 -9.459042 3.429198 3.227155 3.438503 10.127597 -11.619440 1.028972 -0.248619
1.722358 49.899609 0.892155 0.012273 -1.909239 -0.006380 -5.752705 2.796263 -4.542025 8.534946 0.424867 -2.814845 3.112303 0.286181 -1.067328 1.468103 -0.138221 1.177738 -0.291096 -5.852731 -1.266769 3.270642 -2.129720 -12.024495 -3.481890 13.004271 -3.408015 5.602234 8.470239 -59.332169 7.917048 4.498316 -2.348252 -18.823301 -26.567924 -18.651192 -4.535466 -22.506445 1.801154 10.531671 -12.390245 60.718533 21.638363 -0.644498 1.543829 -1.667203 29.799086 34.299995 -3.816051 2.861528 -4.351153 9.832120 -0.433435 -0.899839 7.951815 2.812058 -0.310971 -9.795540 -4.667432 1.701931 -8.205353 -0.539547 0.227893 6.450142 -1.002876 -6.352170 -9.228184 -8.725335 2.807710 3.060089 3.538878 10.078659 -10.909899 0.796780 0.391638
1.963329 49.850319 1.226783 0.012069 -1.819735 -0.012567 -5.859991 3.329509 -4.446987 8.358343 0.397187 -3.045087 3.108769 0.293068 -1.188403 1.423640 -0.223916 1.183740 -0.216184 -5.731190 -1.377369 3.862586 -2.206769 -11.729102 -3.217754 12.799711 -3.311223 5.585200 8.557274 -59.273102 7.977631 4.569963 -2.473464 -18.756435 -27.079197 -18.464027 -4.401731 -22.713121 1.757215 10.816407 -12.908837 60.563004 22.241188 -1.189116 1.115513 -1.676435 29.714811 34.273369 -3.786063 3.408355 -4.422482 10.330418 -0.490996 -0.978060 7.826568 2.469800 -0.151756 -9.980084 -4.953031 1.625961 -8.728971 -0.805721 0.401980 6.314417 -0.930642 -6.329084 -10.391335 -8.363845 2.491219 2.862111 3.579106 10.269953 -10.778145 0.714209 0.763371
2.028697 49.779575 1.501958 0.008630 -1.653283 -0.002652 -5.846531 3.843605 -4.443116 8.267946 0.225688 -3.159731 3.113580 0.223690 -1.218960 1.000505 -0.271558 1.045772 -0.072259 -5.898372 -1.217833 4.737375 -2.325415 -11.340555 -2.979824 12.926722 -3.403389 5.474654 8.588777 -59.285156 7.906846 4.398491 -2.430331 -18.263811 -27.308218 -18.005592 -4.528658 -22.966021 1.831933 11.151879 -13.050865 60.266697 22.246202 -1.602121 0.619710 -1.592674 29.631432 34.395962 -3.991752 3.751161 -4.342314 11.123811 -0.311049 -1.126223 7.236115 1.988114 0.152769 -9.509985 -5.166256 1.821785 -9.762113 -0.639256 0.140588 6.309823 -0.847781 -6.099012 -11.568332 -8.287311 1.799662 3.321092 3.528529 10.350795 -10.761537 0.744074 0.631601
2.006814 49.728436 1.766845 0.014543 -1.509028 -0.008190 -5.964167 4.108710 -4.241354 8.174504 0.269600 -3.454520 3.116591 0.236704 -1.395290 0.884078 -0.284761 1.065308 0.004874 -6.129199 -1.232152 4.865005 -2.383643 -11.099816 -3.028463 13.066380 -3.247531 5.657871 8.707986 -59.133385 7.870702 4.419598 -2.562550 -18.307535 -27.371286 -18.088663 -4.396721 -23.011139 1.754680 11.413031 -13.336705 60.155064 22.429321 -2.037070 0.539519 -1.749998 29.854988 34.510273 -3.883831 3.938770 -4.176050 11.436223 -0.332148 -1.277467 6.868641 1.728450 0.323010 -9.507236 -5.268310 1.748375 -9.646044 -0.693998 0.307832 6.310101 -0.838526 -5.999451 -12.348403 -8.548332 1.809584 3.137214 3.599657 10.026757 -10.508418 0.599780 0.787835
1.978240 49.641914 2.262758 0.018732 -1.426192 -0.001792 -5.852561 4.835756 -4.271780 7.970939 0.050352 -3.573660 3.048009 0.074827 -1.374442 0.725478 -0.339711 1.009241 0.083065 -6.212850 -1.167037 5.731692 -2.390451 -10.846236 -2.683303 13.356733 -3.163912 5.099689 8.388295 -59.509945 7.709973 4.729305 -2.347040 -18.228615 -27.314291 -17.673584 -4.381739 -22.729465 1.815170 11.627604 -13.763583 59.712433 22.315977 -2.081877 0.483330 -1.815920 29.608940 34.927837 -3.721455 4.620121 -4.168745 12.149174 -0.586079 -1.120935 6.645038 1.342864 0.548509 -9.761600 -5.127971 1.646207 -10.438875 -0.738579 0.228673 5.722088 -0.762532 -5.606984 -12.250762 -8.553715 1.537243 3.077310 3.190592 9.737285 -10.393283 0.427090 0.772147
1.836579 49.652443 2.332572 0.006080 -1.308167 -0.004534 -5.842415 5.068388 -4.310780 7.871647 0.015172 -3.564287 3.042375 0.088280 -1.219571 0.666391 -0.342354 0.936673 0.215265 -6.234448 -1.183670 5.595302 -2.318206 -10.742322 -2.741221 13.503616 -3.075703 5.247180 8.611903 -59.789658 7.405732 4.865415 -2.345088 -18.820742 -27.062639 -17.923073 -4.395204 -22.494452 1.725483 11.644451 -13.610237 59.681862 22.345108 -2.302028 0.329630 -1.706658 29.549210 35.020634 -3.636173 4.829791 -4.246477 12.036553 -0.570797 -0.790656 6.702507 1.243273 0.479422 -9.831336 -5.008705 1.349103 -10.259401 -0.760536 0.401964 5.770711 -0.792299 -5.074976 -12.809597 -8.742471 1.573375 2.729659 3.124516 9.417290 -9.676466 0.501801 0.789815
1.718656 49.614437 2.521506 0.012036 -1.129516 0.003783 -5.739847 5.255053 -4.515580 7.648618 -0.033670 -3.523062 2.992780 -0.003433 -1.153041 0.814363 -0.318418 0.791072 0.153353 -6.022377 -0.996798 5.830169 -2.266854 -10.363486 -2.720991 13.582813 -3.120860 5.129860 8.757670 -60.102337 7.225809 5.225418 -2.030240 -19.239723 -27.030010 -18.058826 -4.217716 -22.185873 1.760350 11.511400 -13.775808 59.381573 22.325558 -2.412854 0.404498 -1.205151 29.685186 34.757671 -3.628589 5.026164 -4.432915 12.235812 -0.583846 -0.429677 7.139634 0.982975 0.489263 -10.477271 -4.670119 1.246198 -10.726745 -0.702827 0.342354 5.195170 -0.811722 -4.724147 -12.209759 -8.580421 1.599859 2.252013 3.003548 9.169340 -9.495111 0.341284 0.818061
1.567795 49.554337 2.661704 0.009820 -0.848022 -0.007163 -5.878070 5.260868 -4.458373 7.805153 -0.082510 -3.644415 3.008284 0.041967 -1.139673 0.691265 -0.456517 0.748050 0.190639 -6.123024 -1.088820 6.001460 -2.219001 -10.070098 -2.764130 13.400028 -3.096776 5.148990 9.006291 -60.453201 6.893524 5.580995 -1.684783 -19.442543 -26.819332 -18.201017 -4.239481 -22.150566 1.625888 11.738084 -13.719091 59.380650 21.717455 -2.409259 0.247054 -1.206058 29.898205 35.006268 -3.769251 5.206047 -4.558792 12.218059 -0.523027 -0.039108 7.677269 1.051280 0.256106 -11.013033 -4.483994 1.376847 -10.107401 -0.680080 0.227078 4.981890 -0.837210 -4.410455 -11.561284 -8.451597 1.736748 2.235081 3.204454 9.057193 -9.831145 0.521437 0.529313
1.346573 49.482918 2.823096 0.009271 -0.771936 -0.013983 -5.950268 5.254728 -4.480739 7.947020 0.033233 -3.858592 2.874838 0.035183 -1.199297 1.092020 -0.266030 0.569188 0.070269 -6.208595 -0.915786 5.917126 -2.103901 -9.674877 -2.860701 13.271284 -2.869978 5.036166 9.104386 -60.728390 6.905166 6.381307 -1.426467 -20.082907 -27.227446 -18.446617 -3.932581 -22.051830 1.658665 11.928941 -14.073539 59.396141 21.396095 -1.995385 0.152891 -1.187371 29.665726 35.167423 -3.827354 5.415746 -4.740793 12.241155 -0.528018 0.591836 8.378448 1.084486 0.160084 -11.777656 -3.881710 1.015660 -10.429215 -0.922078 0.207725 4.445518 -0.942339 -4.250713 -10.858678 -8.040718 2.082258 2.262086 3.358865 8.739556 -10.101109 0.547879 0.487118
